<?xml version="1.0" encoding="UTF-8" standalone="no"?>
<svg
   xmlns:osb="http://www.openswatchbook.org/uri/2009/osb"
   xmlns:dc="http://purl.org/dc/elements/1.1/"
   xmlns:cc="http://creativecommons.org/ns#"
   xmlns:rdf="http://www.w3.org/1999/02/22-rdf-syntax-ns#"
   xmlns:svg="http://www.w3.org/2000/svg"
   xmlns="http://www.w3.org/2000/svg"
   width="210mm"
   height="297mm"
   viewBox="0 0 210 297"
   version="1.1"
   id="svg8">
  <defs
     id="defs2">
    <linearGradient
       id="linearGradient2504"
       osb:paint="solid">
      <stop
         style="stop-color:#0000ff;stop-opacity:1;"
         offset="0"
         id="stop2502" />
    </linearGradient>
  </defs>
  <metadata
     id="metadata5">
    <rdf:RDF>
      <cc:Work
         rdf:about="">
        <dc:format>image/svg+xml</dc:format>
        <dc:type
           rdf:resource="http://purl.org/dc/dcmitype/StillImage" />
        <dc:title></dc:title>
      </cc:Work>
    </rdf:RDF>
  </metadata>
  <g
     style="fill:#ff00cc"
     transform="translate(37.754237,28.944915)"
     id="layer1">
    <ellipse
       style="opacity:0.997;fill:#ff00cc;fill-opacity:0;fill-rule:evenodd;stroke-width:0.26458332"
       id="path24"
       cx="93.265625"
       cy="25.424107"
       rx="12.756697"
       ry="18.331844" />
    <path
       style="opacity:0.60900005;fill:#ff00cc;fill-opacity:0.80672272;fill-rule:nonzero;stroke:#000000;stroke-width:1.81795275;stroke-miterlimit:4;stroke-dasharray:none;stroke-opacity:0.34782613"
       d="m 344.3125,242.66211 a 98.474604,94.295739 75.992099 0 0 -94.54688,96.21484 98.474604,94.295739 75.992099 0 0 0.62305,10.26367 l 91.63867,89.17383 c 0.36241,-0.18607 0.82638,-0.29504 1.38672,-0.28711 l 95.22266,-88.6289 a 98.474604,94.295739 75.992099 0 0 0.2207,-6.51953 98.474604,94.295739 75.992099 0 0 -94.54492,-100.2168 z"
       transform="scale(0.26458333)"
       id="path841" />
    <ellipse
       style="opacity:0.997;fill:#ff00cc;fill-opacity:1;fill-rule:evenodd;stroke-width:0.18953893"
       id="path843"
       cx="91.383408"
       cy="124.10701"
       rx="3.215579"
       ry="3.5611303" />
    <path
       id="path2594"
       d="m 90.83067,70.397467 a 20.152438,19.55828 68.550196 0 0 -19.638777,19.661039 20.152438,19.55828 68.550196 0 0 0.129137,2.09765 L 90.465853,110.48353 110.42346,92.20882 a 20.152438,19.55828 68.550196 0 0 0.0461,-1.332489 20.152438,19.55828 68.550196 0 0 -19.638815,-20.478864 z m -0.364817,40.086063 -0.02813,0.0258 a 20.152438,19.55828 68.550196 0 0 0.05967,0.004 z"
       style="opacity:0.60900005;fill:#ff00cc;fill-opacity:0.80672272;fill-rule:nonzero;stroke:none;stroke-width:0.37454462;stroke-miterlimit:4;stroke-dasharray:none;stroke-opacity:1" />
  </g>
</svg>
